<?xml version="1.0" encoding="utf-8"?>
<!-- Generator: Adobe Illustrator 28.4.1, SVG Export Plug-In . SVG Version: 6.00 Build 0)  -->
<svg version="1.1" id="a" xmlns="http://www.w3.org/2000/svg" xmlns:xlink="http://www.w3.org/1999/xlink" x="0px" y="0px"
	 width="792px" height="451.6px" viewBox="0 0 792 451.6" style="enable-background:new 0 0 792 451.6;" xml:space="preserve">
<style type="text/css">
	.st0{fill:#00AEEF;}
	.st1{fill:#FFFFFF;}
	.st2{fill:#0050A4;}
</style>
<path class="st0" d="M395.3,0H395c0.7,0,1.3,0,2,0C396.4,0,395.9,0,395.3,0"/>
<g>
	<path class="st0" d="M53,139.2c0.4,0.2,0.6,0.3,0.7,0.4l0,0c5.5,3.3,17.4,9.9,25.4,11.5c0.1,0,0.2,0,0.3,0c1,0.1,1.9,0.2,2.9,0.3h0
		c0.3,0,0.5,0,0.7,0c8.3,0.5,14.7-0.9,16.3-1.3l62.7-15.3l17.2-4.2l0.4-0.1l8.8-2.1c-19-22.5-47.2-36.9-78.8-37.5
		c-0.6,0-1.2,0-1.9,0h-0.1c-34.5,0-65.1,16.5-84.4,42.1c-0.1,0.1-0.2,0.3-0.3,0.4c-0.2,0.2-0.3,0.4-0.5,0.6
		c-0.8,1.1-1.7,2.3-2.4,3.5C39.4,133.3,50.3,137.8,53,139.2"/>
	<path class="st0" d="M19.4,254.8c-4.9-7.5-8.9-15.6-11.9-24.2c-1.9-5.5-3.3-11.1-4.2-16.9c-0.9-5.5-1.4-11.1-1.4-16.8
		c0,0.1,0,0.2,0,0.3C1.9,255,49.2,302.3,107,302.3c0.1,0,0.2,0,0.3,0C70.6,302.2,38.3,283.3,19.4,254.8"/>
	<path class="st0" d="M203,242.1c-7.4,15.4-18.3,28.7-31.8,38.9c25.6-19.2,42.1-49.7,42.1-83.9c0-0.1,0-0.2,0-0.3
		c0,5.4-0.4,10.7-1.2,15.9C210.5,223.2,207.4,233,203,242.1"/>
	<path class="st0" d="M212.8,186.3c0,0,0,0.1,0,0.1C212.8,186.4,212.8,186.4,212.8,186.3"/>
	<path class="st0" d="M171.2,281c13.5-10.2,24.4-23.5,31.8-38.9c-7.7,1.2-20,1.6-32.8-4.7c-0.1-0.1-0.2-0.1-0.3-0.1
		c-4.7-2.5-13.5-6.5-23.3-8.2c-1.2-0.2-2.4-0.3-3.6-0.5c-1.3-0.1-2.6-0.2-3.7-0.3c-1.8-0.1-3-0.1-3.6-0.2c-0.2,0-0.5,0-0.7,0
		c-0.2,0-6.2-0.1-14.1,1.9L19.4,254.8c18.9,28.5,51.2,47.3,87.9,47.4c23.6-0.1,45.3-7.7,62.9-20.5c0.2-0.1,0.4-0.3,0.6-0.4
		C171,281.2,171.1,281.1,171.2,281"/>
	<path class="st0" d="M170.2,281.7c0.2-0.1,0.4-0.3,0.6-0.4C170.6,281.4,170.4,281.6,170.2,281.7"/>
	<path class="st0" d="M22.4,134c0.2-0.2,0.3-0.4,0.5-0.6C22.7,133.5,22.6,133.8,22.4,134"/>
	<path class="st0" d="M163.2,206.8c-7.7,1.2-20.1,1.6-32.9-4.7c-0.1,0-0.2-0.1-0.3-0.1c-4.7-2.5-13.5-6.5-23.3-8.2
		c-1.2-0.2-2.4-0.3-3.6-0.5c-1.3-0.1-2.6-0.2-3.7-0.3c-1.8-0.1-3-0.1-3.6-0.2c-0.2,0-0.5,0-0.7,0c-0.2,0-6.2,0-14.1,1.9l-77.7,19
		c0.9,5.8,2.4,11.5,4.2,16.9l89.8-22c21.2-5.2,32.8-0.2,35.7,1.2c0.4,0.2,0.6,0.3,0.7,0.4l0,0c5.5,3.3,17.4,9.9,25.4,11.5
		c0.1,0,0.2,0,0.3,0c1,0.1,1.9,0.2,2.9,0.3h0c0.2,0,0.5,0,0.7,0c8.3,0.5,14.7-0.9,16.3-1.3l32.7-8c0.8-5.2,1.2-10.5,1.2-16
		c0-0.8,0-1.5,0-2.3L163.2,206.8L163.2,206.8z"/>
	<path class="st0" d="M213.2,191.5c0,0.6,0,1.3,0,1.9C213.2,192.8,213.2,192.2,213.2,191.5"/>
	<path class="st0" d="M185.5,156.2l-17.2,4.2l-14.1,3.5l-31,7.6c-7.7,1.2-20.1,1.6-32.9-4.7c-0.1,0-0.2-0.1-0.3-0.1
		c-4.7-2.5-13.5-6.5-23.3-8.2c-1.2-0.2-2.4-0.3-3.6-0.5c-1.3-0.1-2.6-0.2-3.7-0.3c-1.8-0.1-3-0.1-3.6-0.2c-0.2,0-0.5,0-0.7,0
		c-0.2,0-6.2-0.1-14.1,1.9l-35,8.6C4.2,174,3,180.3,2.4,186.8l55-13.5c21.2-5.2,32.8-0.2,35.7,1.2c0.3,0.2,0.6,0.3,0.7,0.4l0,0
		c5.5,3.3,17.3,9.9,25.4,11.5c0.1,0,0.2,0,0.3,0c1,0.1,1.9,0.2,2.9,0.3h0c0.2,0,0.5,0,0.7,0c8.3,0.5,14.7-0.9,16.3-1.3l70.1-17.2
		c-1.6-5.7-3.6-11.2-6.1-16.5L185.5,156.2L185.5,156.2z"/>
	<path class="st0" d="M107.6,90.8H107c-34.2,0-64.6,16.5-83.8,42.1C42.5,107.4,73.1,90.8,107.6,90.8"/>
	<path class="st1" d="M2.4,186.8c-0.3,3.2-0.5,6.5-0.5,9.8c0,0.1,0,0.2,0,0.3C1.9,193.4,2.1,190.1,2.4,186.8L2.4,186.8L2.4,186.8z"
		/>
	<path class="st1" d="M212.8,186.4c0.2,1.7,0.3,3.4,0.4,5.1C213.1,189.8,213,188.1,212.8,186.4"/>
	<path class="st1" d="M212.8,186.3c-0.6-6.2-1.7-12.2-3.3-18h0C211.1,174.1,212.2,180.1,212.8,186.3"/>
	<path class="st1" d="M213.3,194.5c0-0.4,0-0.7,0-1.1C213.3,193.8,213.3,194.2,213.3,194.5L213.3,194.5L213.3,194.5z"/>
	<path class="st1" d="M20,137.5L20,137.5c-6.2,9.2-11,19.5-14.1,30.5l0.1,0C9,156.9,13.8,146.7,20,137.5"/>
	<path class="st1" d="M203.4,151.9L203.4,151.9c-3.9-8.5-9-16.4-15-23.5l-0.1,0C194.3,135.5,199.4,143.4,203.4,151.9"/>
	<path class="st2" d="M736.2,196.1c0-21.1-17.5-38.6-38.6-38.6c-21.2,0-39.6,17.5-39.6,38.6v79.1c-22.1,0.9-43.2,0.9-43.2,0.9v-80
		c0-45.1,36.8-81.9,82.8-81.9c46,0,82.8,36.8,82.8,81.9v79.1h-44.2V196.1z"/>
	<path class="st2" d="M313.2,167.6c-6.6-3.7-4.4-12,7.7-14.7c16.4-3.7,42.8,0,65.8,8.3l25.2-27.6c-11-7.4-34-17.5-68-19.3
		c0,0-55.9-5.5-79,30.4c0,0-20.8,34,19.7,54.3c24.1,12.9,65.8,17.5,79,23.9c11,4.6,7.7,14.7-8.8,17.5c-26.3,5.5-62.5-7.4-74.6-14.7
		l-25.2,28.5c16.4,10.1,38.4,19.3,72.4,24.8c0,0,52.7,7.4,82.3-23c5.5-6.4,29.6-44.2-18.7-65.3C367,179.6,326.4,175,313.2,167.6"/>
	<path class="st2" d="M514.5,235.7c-21.1,0-38.6-17.5-38.6-39.6s17.5-38.6,38.6-38.6c21.1,0,39.6,17.5,39.6,38.6
		S536.6,235.7,514.5,235.7 M597.3,195.2c-0.5-44.6-37.1-80.9-81.8-80.9s-82.8,36.8-82.8,81.9c0,0.2,0,0.5,0,0.7
		c0.2,45.5,37.3,82.3,82.8,82.1c20.3,0,39-7.5,53.3-20l21.3,16.3c2.9,2.3,7.2,0.1,7.2-3.6L597.3,195.2
		C597.3,195.2,597.3,195.2,597.3,195.2"/>
	<g>
		<polygon class="st0" points="431.7,382.1 421.5,382.1 413.5,362.1 406.8,341.9 400.1,362.3 392.4,382.1 382.2,382.1 358.8,318.3 
			372.3,318.3 387.3,364.4 402.8,318.3 410.6,318.3 426.6,364.4 441.2,318.3 454.7,318.3 		"/>
		<polygon class="st0" points="481.3,331.7 459.1,382.1 446.1,382.1 474.7,318.3 487.8,318.3 516.4,382.1 503.3,382.1 		"/>
		<polygon class="st0" points="527.9,329.3 507.7,329.3 507.7,318.3 560.2,318.3 560.2,329.3 540,329.3 540,382.1 527.9,382.1 		"/>
		<polygon class="st0" points="615,382.1 567.3,382.1 567.3,318.3 615,318.3 615,330 579.2,330 579.2,350.2 602.1,350.2 
			602.1,361.4 579.2,361.4 579.2,370.3 615,370.3 		"/>
		<path class="st0" d="M661.6,359.5c12.1-2.5,16.1-11.3,16.1-20.1c0-11-7.9-21.1-23-21.1c-10.1,0-20.2-0.1-30.4-0.1v11.3h30.4
			c7.6,0,10.9,5.1,10.9,10.2c0,5.1-3.3,10.2-10.9,10.2h-30.4v32.2h12v-21.3H648l18.6,21.3h14.3v-0.8L661.6,359.5L661.6,359.5z"/>
	</g>
	<path class="st2" d="M783.5,104.6c0-0.9-0.3-1.5-0.8-2c-0.5-0.5-1.6-0.7-3.1-0.7h-1.9v5.4h1.9c1.3,0,2.3-0.2,2.9-0.6
		C783.2,106.3,783.5,105.6,783.5,104.6 M777.7,109.5v4.8c0,0.6-0.3,0.9-0.9,0.9h-0.9c-0.5,0-0.8-0.3-0.8-0.9v-13.2
		c0-0.6,0.3-1,1-1.1c1.1-0.1,2.2-0.2,3.5-0.2c2.4,0,4.1,0.4,5.1,1.2c1,0.8,1.5,2,1.5,3.7c0,2.2-1,3.6-3,4.3l3.1,5.1
		c0.2,0.3,0.3,0.6,0.2,0.8c-0.1,0.2-0.3,0.4-0.5,0.4h-1.5c-0.3,0-0.6-0.2-0.8-0.6l-3-5.1L777.7,109.5L777.7,109.5z M769.3,107.8
		c0,2,0.5,3.8,1.5,5.5c1,1.7,2.3,3,4,4c1.7,1,3.5,1.5,5.5,1.5c2,0,3.8-0.5,5.5-1.5c1.7-1,3-2.3,4-4c1-1.7,1.5-3.5,1.5-5.5
		s-0.5-3.8-1.5-5.5c-1-1.7-2.3-3-4-4c-1.7-1-3.5-1.5-5.5-1.5c-2,0-3.8,0.5-5.5,1.5c-1.7,1-3,2.3-4,4
		C769.8,104,769.3,105.8,769.3,107.8 M793.7,107.8c0,1.8-0.4,3.5-1.1,5.2c-0.7,1.7-1.7,3.1-2.9,4.3c-1.2,1.2-2.6,2.1-4.2,2.8
		c-1.6,0.7-3.4,1.1-5.2,1.1c-2.4,0-4.6-0.6-6.7-1.8c-2.1-1.2-3.7-2.8-4.9-4.9c-1.2-2.1-1.8-4.3-1.8-6.8c0-2.4,0.6-4.6,1.8-6.7
		c1.2-2.1,2.8-3.7,4.9-4.9c2.1-1.2,4.3-1.8,6.7-1.8s4.6,0.6,6.6,1.8c2.1,1.2,3.7,2.8,4.9,4.9C793.1,103.2,793.8,105.4,793.7,107.8"
		/>
</g>
</svg>
