<?xml version="1.0" encoding="UTF-8"?>
<svg id="a" data-name="Layer 1" xmlns="http://www.w3.org/2000/svg" width="1268.94" height="1041.7" viewBox="0 0 1268.94 1041.7">
  <path d="M506.02,92.75c.64.35,1.02.59,1.19.68l.05.04c9.92,5.94,31.11,17.83,45.57,20.57.19.04.34.05.52.06,1.76.22,3.48.4,5.18.53h.04c.46-.03.88,0,1.27.09,14.8.91,26.4-1.6,29.27-2.32l112.35-27.52,30.78-7.54.66-.16,15.7-3.85c-34.06-40.28-84.59-66.18-141.27-67.26-1.13-.02-2.24-.09-3.37-.09h-.12c-61.83.02-116.73,29.65-151.31,75.48-.18.24-.37.47-.55.72-.29.38-.55.78-.83,1.16-1.5,2.05-2.97,4.11-4.39,6.22,34.9-7.43,54.4.65,59.27,3.17" fill="#fff" stroke-width="0"/>
  <path d="M445.79,300.03c-8.87-13.39-16.05-27.97-21.31-43.45-3.33-9.78-5.9-19.91-7.6-30.34-1.6-9.82-2.47-19.89-2.5-30.17,0,.18-.01.36-.01.54,0,103.75,84.71,188.47,188.48,188.47.18,0,.36,0,.54,0-65.84-.19-123.75-33.94-157.59-85.04" fill="#fff" stroke-width="0"/>
  <path d="M774.95,277.28c-13.2,27.56-32.85,51.43-57.02,69.66,45.98-34.47,75.51-89.07,75.51-150.33,0-.18-.01-.37-.01-.55-.02,9.72-.78,19.27-2.21,28.6-2.86,18.57-8.43,36.24-16.27,52.62" fill="#fff" stroke-width="0"/>
  <path d="M792.54,177.18c0,.07,0,.14.01.22,0-.07,0-.14-.01-.22" fill="#fff" stroke-width="0"/>
  <path d="M717.93,346.93c24.16-18.23,43.82-42.09,57.01-69.66-13.82,2.19-35.89,2.8-58.76-8.38-.16-.1-.37-.19-.52-.24-8.49-4.45-24.28-11.64-41.78-14.75-2.2-.3-4.36-.6-6.44-.83-2.38-.26-4.6-.45-6.73-.63-3.31-.12-5.38-.25-6.43-.37-.42-.04-.83-.02-1.25-.01-.42-.04-11.12-.1-25.22,3.36l-182.03,44.6c33.83,51.1,91.75,84.85,157.58,85.03,42.36-.12,81.28-13.78,112.74-36.79.37-.27.76-.52,1.14-.81.23-.17.45-.36.68-.53" fill="#fff" stroke-width="0"/>
  <path d="M604.45,6h-.49c1.13,0,2.24.06,3.37.09-.96-.02-1.91-.08-2.88-.09" fill="#fff" stroke-width="0"/>
  <path d="M716.12,348.27c.37-.27.76-.53,1.14-.81-.37.27-.76.53-1.14.81" fill="#fff" stroke-width="0"/>
  <path d="M451.15,83.36c.28-.39.55-.78.83-1.16-.28.38-.55.78-.83,1.16" fill="#fff" stroke-width="0"/>
  <path d="M703.52,213.94c-13.8,2.22-36.03,2.91-59.04-8.35-.17-.09-.37-.19-.52-.24-8.49-4.44-24.28-11.63-41.78-14.75-2.2-.3-4.35-.6-6.45-.83-2.37-.25-4.59-.45-6.72-.62-3.31-.11-5.38-.25-6.43-.37-.42-.04-.84-.03-1.25-.02-.42-.04-11.13-.09-25.22,3.36l-139.22,34.11c1.7,10.43,4.26,20.57,7.59,30.34l161.06-39.46c37.97-9.3,58.85-.4,63.93,2.24.64.36,1.02.59,1.19.68l.05.04c9.93,5.95,31.11,17.82,45.57,20.57.19.05.34.06.52.06,1.76.22,3.47.4,5.17.54h.04c.45-.03.88,0,1.27.09,14.8.91,26.4-1.61,29.28-2.32l58.65-14.37c1.44-9.33,2.19-18.88,2.21-28.6,0-1.38-.06-2.75-.09-4.12l-89.83,22Z" fill="#fff" stroke-width="0"/>
  <path d="M793.22,186.55c.05,1.12.05,2.25.09,3.37-.04-1.12-.04-2.25-.09-3.37" fill="#fff" stroke-width="0"/>
  <path d="M743.49,123.27l-30.78,7.54-25.3,6.2-55.61,13.63c-13.8,2.22-36.02,2.9-59.04-8.35-.17-.09-.37-.19-.52-.24-8.5-4.44-24.28-11.63-41.79-14.75-2.2-.29-4.36-.6-6.45-.83-2.38-.25-4.59-.45-6.72-.62-3.31-.11-5.39-.26-6.43-.37-.42-.04-.85-.03-1.26-.02-.42-.04-11.12-.09-25.22,3.36l-62.77,15.38c-3.06,10.88-5.22,22.15-6.33,33.75l98.54-24.14c37.97-9.3,58.85-.4,63.94,2.24.63.36,1.02.59,1.18.69l.06.03c9.92,5.95,31.11,17.83,45.57,20.57.19.05.34.06.52.06,1.76.22,3.47.4,5.17.54h.05c.45-.03.88,0,1.27.09,14.8.91,26.4-1.61,29.28-2.32l125.65-30.78c-2.84-10.21-6.48-20.09-10.9-29.53l-32.11,7.87Z" fill="#fff" stroke-width="0"/>
  <path d="M603.84,6h-1.01c-61.24,0-115.84,29.52-150.3,75.48,34.58-45.83,89.47-75.46,151.31-75.48" fill="#fff" stroke-width="0"/>
  <path d="M415.21,177.97c-.53,5.79-.84,11.64-.84,17.57,0,.18.01.35.01.53.01-6.11.32-12.15.89-18.11h-.06Z" fill="#fff" stroke-width="0"/>
  <path d="M792.56,177.39c.29,3.03.51,6.09.65,9.16-.14-3.07-.37-6.13-.65-9.16" fill="#fff" stroke-width="0"/>
  <path d="M792.54,177.18c-1.06-11.07-3.11-21.84-5.99-32.26h-.06c2.9,10.43,4.98,21.2,6.05,32.26" fill="#fff" stroke-width="0"/>
  <path d="M793.35,191.93c-.01-.67-.03-1.33-.05-2,.02.67.03,1.33.04,2h0Z" fill="#fff" stroke-width="0"/>
  <path d="M446.76,89.58s-.03,0-.04,0c-11.17,16.54-19.75,34.96-25.27,54.66l.15-.04c5.54-19.71,14.08-38.11,25.16-54.62" fill="#fff" stroke-width="0"/>
  <path d="M775.6,115.4l.07-.02c-7.13-15.24-16.21-29.36-26.94-42.07l-.12.03c10.74,12.71,19.86,26.82,26.99,42.06" fill="#fff" stroke-width="0"/>
  <path d="M1113.26,636.07c0-48.7-40.24-88.95-88.95-88.95s-91.08,40.25-91.08,88.95v182.15c-50.82,2.14-99.53,2.14-99.53,2.14v-184.28c0-103.77,84.72-188.48,190.61-188.48s190.62,84.71,190.62,188.48v182.15h-101.67v-182.15Z" fill="#fff" stroke-width="0"/>
  <path d="M139.32,570.43c-15.16-8.46-10.1-27.53,17.68-33.88,37.88-8.48,98.52,0,151.56,19.06l58.11-63.53c-25.25-16.93-78.31-40.24-156.61-44.48,0,0-128.83-12.71-181.88,69.89,0,0-48,78.36,45.47,124.95,55.58,29.65,151.56,40.24,181.87,55.07,25.25,10.61,17.68,33.89-20.21,40.24-60.62,12.72-143.99-16.95-171.77-33.9l-58.09,65.67c37.88,23.28,88.4,44.47,166.71,57.15,0,0,121.25,16.95,189.45-52.93,12.63-14.84,68.21-101.66-42.95-150.36-55.55-25.41-149.01-36-179.32-52.95" fill="#fff" stroke-width="0"/>
  <path d="M602.85,727.14c-48.7,0-88.96-40.24-88.96-91.08s40.26-88.95,88.96-88.95,91.08,40.24,91.08,88.95-40.25,91.08-91.08,91.08M793.34,633.93c-1.17-102.78-85.33-186.34-188.37-186.34s-190.61,84.7-190.61,188.48c0,.54,0,1.08,0,1.62.45,104.83,85.79,189.44,190.61,188.99,46.84,0,89.7-17.37,122.73-46.05l49.15,37.58c6.8,5.19,16.6.35,16.6-8.2v-176.04c0-.05-.1,0-.11-.04" fill="#fff" stroke-width="0"/>
  <polygon points="430.44 1033.39 409.63 1033.39 393.46 992.51 379.71 951.45 366.15 992.89 350.36 1033.39 329.54 1033.39 281.79 903.32 309.29 903.32 339.95 997.16 371.53 903.32 387.52 903.32 420.03 997.16 449.76 903.32 477.26 903.32 430.44 1033.39" fill="#fff" stroke-width="0"/>
  <polygon points="531.49 930.64 486.34 1033.39 459.77 1033.39 518.11 903.32 544.88 903.32 603.21 1033.39 576.46 1033.39 531.49 930.64" fill="#fff" stroke-width="0"/>
  <polygon points="626.62 925.62 585.37 925.62 585.37 903.32 692.4 903.32 692.4 925.62 651.15 925.62 651.15 1033.39 626.62 1033.39 626.62 925.62" fill="#fff" stroke-width="0"/>
  <polygon points="804.24 1033.39 706.88 1033.39 706.88 903.32 804.24 903.32 804.24 927.11 731.21 927.11 731.21 968.27 777.84 968.27 777.84 991.12 731.21 991.12 731.21 1009.23 804.24 1009.23 804.24 1033.39" fill="#fff" stroke-width="0"/>
  <path d="M899.18,987.31c24.71-5.02,32.88-23.05,32.88-40.88,0-22.49-16.16-42.92-46.82-43.11-20.62,0-41.25-.19-61.88-.19v23.05h61.88c15.42,0,22.3,10.4,22.3,20.81s-6.69,20.8-22.3,20.8h-61.88v65.59h24.52v-43.47h23.6l37.9,43.47h29.18v-1.67l-39.39-44.41Z" fill="#fff" stroke-width="0"/>
  <path d="M1236.48,477.85c0-2.06-.61-3.62-1.86-4.69-1.24-1.06-3.64-1.6-7.21-1.6h-4.44v12.67h4.44c3.02,0,5.29-.47,6.8-1.44,1.51-.96,2.27-2.61,2.27-4.95M1222.98,489.29v11.12c0,1.45-.68,2.16-2.06,2.16h-2.16c-1.24,0-1.85-.72-1.85-2.16v-30.81c0-1.51.78-2.41,2.37-2.68,2.47-.27,5.18-.41,8.15-.41,5.56,0,9.49.93,11.79,2.78,2.3,1.86,3.45,4.71,3.45,8.56,0,5.08-2.34,8.45-7.01,10.1l7.21,11.84c.48.69.64,1.32.47,1.91-.17.58-.6.88-1.28.88h-3.62c-.76,0-1.4-.45-1.96-1.34l-6.9-11.95h-6.6ZM1203.4,485.27c0,4.67,1.17,8.96,3.5,12.88,2.34,3.92,5.46,7.04,9.38,9.38,3.92,2.34,8.2,3.5,12.88,3.5s8.97-1.16,12.89-3.5c3.9-2.34,7.04-5.46,9.37-9.38,2.34-3.92,3.51-8.2,3.51-12.88s-1.17-8.97-3.51-12.89c-2.33-3.91-5.47-7.04-9.37-9.38-3.92-2.34-8.22-3.51-12.89-3.51s-8.96,1.17-12.88,3.51c-3.92,2.34-7.04,5.46-9.38,9.38-2.34,3.91-3.5,8.21-3.5,12.89M1260.39,485.27c0,4.19-.84,8.26-2.52,12.21-1.68,3.95-3.92,7.28-6.69,10-2.79,2.72-6.08,4.9-9.9,6.54-3.8,1.65-7.84,2.47-12.11,2.47-5.56,0-10.76-1.37-15.6-4.12-4.85-2.75-8.66-6.53-11.44-11.34-2.79-4.8-4.17-10.06-4.17-15.76s1.38-10.76,4.17-15.57c2.78-4.8,6.57-8.62,11.38-11.44,4.81-2.81,10.03-4.22,15.66-4.22s10.66,1.41,15.46,4.22c4.81,2.82,8.64,6.62,11.49,11.4,2.85,4.77,4.28,9.97,4.28,15.61" fill="#fff" stroke-width="0"/>
</svg>